<svg xmlns="http://www.w3.org/2000/svg" class="iconify iconify--logos" viewBox="-50 -50 41 41">
    <defs>
        <linearGradient id="a" x1="-25.4" x2="-25.4" y1="-9.3" y2="-18" gradientTransform="translate(31 24)"
            gradientUnits="userSpaceOnUse">
            <stop offset="0" />
            <stop offset="1" stop-color="#fff" />
        </linearGradient>
        <mask id="b">
            <path fill="url(#a)" d="M-19-26h46v42h-46z" />
        </mask>
    </defs>
    <g mask="url(#b)" transform="translate(-33 -24)">
        <g stroke-linecap="round" stroke-linejoin="round">
            <path fill="#ababab" d="m-9-10 2 4 2-3z" />
            <path fill="#949494" d="m-2-24-7 14 4 1 7-14z" />
            <path fill="#ababab" d="m-2-24 3-2 1 3z" />
            <path fill="#949494" d="m18 5-3 2L-7-6l2-3z" />
        </g>
        <g stroke="#878787">
            <path stroke-width="9.6" d="m-9 20-1 3" />
            <path fill="#878787" stroke-linecap="round" stroke-linejoin="round"
                d="m-12 23-2-2 6 2c2 1 2 2 1 2l-5-2m1-2c2 1 4 2 5 1 1 0 1-1-1-2l-5-2c-2 0-1 1 1 3" />
        </g>
        <g stroke-linecap="round" stroke-linejoin="round">
            <path fill="#949494" d="M-17-10h8l2 4h-9z" />
            <path fill="#757575" d="M24-9 18 5-5-9l7-14z" />
            <path fill="#fbbf28" stroke="#fbbf28" stroke-width=".6"
                d="m10-16 4 3v1l-2 5s0 0 0 0l-1-1s0 0 0 0l-1 2s0 0 0 0L9-7v1L8-3s0 0 0 0h0v-10s0 0 0 0l1 1s0 0 0 0l1-4s0 0 0 0z" />
        </g>
        <g stroke="gray">
            <path stroke-width="9.1" d="m-8 19-1 1" />
            <path fill="gray" stroke-linecap="round" stroke-linejoin="round" stroke-width=".5"
                d="M-11 20c-2-1-2-2-1-2s4 0 5 2 3 2 2 2l-6-2" />
            <path fill="gray" stroke-linecap="round" stroke-linejoin="round" stroke-width=".5"
                d="m-11 19 6 2c1 0 1-1-1-2l-6-2 1 2" />
        </g>
        <path fill="#757575" d="M-17-10h8l7-14h-8z" />
        <path stroke="#91512b" stroke-width="8.6" d="m-2 4-6 15" />
        <g stroke-linecap="round" stroke-linejoin="round">
            <path fill="#91512b" d="m-10 19-2-2c2-1 4 0 6 1 2 2 2 3 1 3l-5-2m6-15 6 2-2-2-5-2c-1 0-1 1 1 2" />
            <path fill="#949494" d="m1-26 1 3L24-9l-1-3zm-11 2h8l3-2-8 1z" />
        </g>
        <g stroke="#6e6e6e">
            <path stroke-width="9.1" d="m0 1-2 3" />
            <path fill="#6e6e6e" stroke-linecap="round" stroke-linejoin="round" stroke-width=".5"
                d="M-4 4c-2-1-2-2-1-2l6 2 1 2-6-2m1-3 6 2c1 0 1-1-1-2l-6-2c-1 0-1 1 1 2" />
        </g>
        <g stroke-linecap="round" stroke-linejoin="round">
            <path fill="#ababab" d="m18 6-3 1 3-2z" />
            <path fill="#757575" d="M15 7 7 8-16-6h9z" />
            <path fill="#ababab" d="m-17-10 1 4v-2z" />
            <path fill="#949494" d="M25-8 18 6V5l6-14zm-35-16-7 14 1 2 6-14z" />
            <path fill="#ababab" d="m25-8-2-4 1 3z" />
            <path fill="#757575" d="m23-12-8 1-22-14 8-1z" />
            <path fill="#ababab" d="m-10-24 3-1-3 3z" />
            <path fill="#949494" d="m18 6-8 1-3 1 8-1zM-16-8v2L7 8 6 6z" />
            <path fill="#757575" d="m18 6-8 1 6-14 9-1zm-28-28-6 14L6 6l6-14z" />
            <path fill="#fbbf28" stroke="#fbbf28" stroke-width=".6"
                d="m3-13-5-1s0 0 0 0l-3 4v1h2s0 0 0 0l-1 2v1h1s0 0 0 0l-2 3s0 0 0 0h0l7-6s0 0 0 0l-1-1H0l3-2v-1z" />
            <path fill="#949494" d="m25-8-9 1-1-4 8-1zm-10-3-3 3-22-14 3-3z" />
            <path fill="#ababab" d="M10 7 7 8 6 6z" />
            <path fill="#949494" d="M16-7 10 7 6 6l6-14z" />
            <path fill="#ababab" d="m16-7-1-4-3 3z" />
        </g>
    </g>
</svg>